<?xml version="1.0" standalone="yes"?>
<svg xmlns="http://www.w3.org/2000/svg" width="462" height="462">
<path style="fill:#ffffff; stroke:none;" d="M0 0L0 462L462 462L462 0L0 0z"/>
<path style="fill:#ffb71f; stroke:none;" d="M225 19C209.3 44.4368 193.287 67.7957 185 97C158.263 75.7963 128.003 65.2332 96 55C74.919 136.482 105.626 226.56 183 265.247C196.183 271.838 212.153 279.705 227 281L227 282L222 282L222 283L235 283L235 282L231 282L231 281C275 275.07 321.437 240.705 343.128 203C348.939 192.898 353.955 182.068 357.645 171C359.631 165.044 360.124 156.925 364 152L366.985 120L362 56C327.442 57.5792 295.809 82.6237 268 100C265.005 79.6451 253.446 59.3663 243 42C238.154 33.9437 232.714 24.5488 225 19M18 144L18 145L28 145L18 144z"/>
<path style="fill:#fc6402; stroke:none;" d="M4 146C7.71327 161.669 16.7951 176.457 25.1921 190C69.7399 261.846 146.297 288.369 227 282C215.486 275.743 201.102 273.248 189 267.691C165.856 257.066 144.887 241.493 128.439 222C116.789 208.193 107.749 192.002 101.692 175C99.6416 169.244 98.0908 154.644 92.7215 151.43C87.154 148.097 78.2965 147.953 72 146.92C48.9324 143.134 27.0506 145.809 4 146z"/>
<path style="fill:#ffb71f; stroke:none;" d="M45 144L45 145L55 145L45 144M404 144L404 145L414 145L404 144z"/>
<path style="fill:#fc6402; stroke:none;" d="M231 281L231 282C305.044 291.358 378.338 263.547 423.37 203C434.723 187.736 451.048 165.476 453 146C430.621 145.815 409.408 143.526 387 146.729C380.587 147.646 368.729 147.867 363.589 152.14C359.953 155.162 359.373 164.596 357.971 169C354.127 181.082 348.594 193.217 341.935 204C318.204 242.433 275.378 271.816 231 281z"/>
<path style="fill:#ffb71f; stroke:none;" d="M427 144L427 145L438 145L427 144M7 145L7 146L12 146L7 145M61 145L61 146L65 146L61 145M393 145L393 146L397 146L393 145M445 145L445 146L450 146L445 145M3 146L4 147L3 146M69 146L69 147L72 147L69 146M385 146L385 147L389 147L385 146M453.333 146.667L453.667 147.333L453.333 146.667M75 147L75 148L78 148L75 147M379 147L379 148L382 148L379 147M4.33333 148.667L4.66667 149.333L4.33333 148.667M81.6667 148.333L82.3333 148.667L81.6667 148.333M374 148L374 149L377 149L374 148M86.6667 149.333L87.3333 149.667L86.6667 149.333M370.667 149.333L371.333 149.667L370.667 149.333M90.6667 150.333L91.3333 150.667L90.6667 150.333M366.667 150.333L367.333 150.667L366.667 150.333M452 150L453 151L452 150M5 151L6 152L5 151M451 152L452 153L451 152M6.33333 153.667L6.66667 154.333L6.33333 153.667M450 155L451 156L450 155M7 156L8 157L7 156M449 157L450 158L449 157M8 158L9 159L8 158M448.333 159.667L448.667 160.333L448.333 159.667M9 161L10 162L9 161M447 162L448 163L447 162M10 163L11 164L10 163M446 164L447 165L446 164M11 165L12 166L11 165M445 166L446 167L445 166M12 167L13 168L12 167M444 168L445 169L444 168M13 169L14 170L13 169M443 170L444 171L443 170M14 171L15 172L14 171M442 172L443 173L442 172M15 173L16 174L15 173M441 174L442 175L441 174M16 175L17 176L16 175M440 176L441 177L440 176M439 177L440 178L439 177M18 178L19 179L18 178M438 179L439 180L438 179M19 180L20 181L19 180M437 181L438 182L437 181M20 182L21 183L20 182M436 183L437 184L436 183M435 184L436 185L435 184M22 185L23 186L22 185M434 186L435 187L434 186M23 187L24 188L23 187M24 188L25 189L24 188M432 189L433 190L432 189M25 190L26 191L25 190M431 191L432 192L431 191M430 192L431 193L430 192M27 193L28 194L27 193M429 194L430 195L429 194M428 195L429 196L428 195M29 196L30 197L29 196M427 197L428 198L427 197M426 198L427 199L426 198M31 199L32 200L31 199M32 200L33 201L32 200M424 201L425 202L424 201M423 202L424 203L423 202M34 203L35 204L34 203M35 204L36 205L35 204M421 205L422 206L421 205M420 206L421 207L420 206M37 207L38 208L37 207M38 208L39 209L38 208M418 209L419 210L418 209M417 210L418 211L417 210M416 211L417 212L416 211M41 212L42 213L41 212M42 213L43 214L42 213M43 214L44 215L43 214M413 215L414 216L413 215M412 216L413 217L412 216M411 217L412 218L411 217M410 218L411 219L410 218M47 219L48 220L47 219M409 219L410 220L409 219M48 220L49 221L48 220M49 221L50 222L49 221M50 222L51 223L50 222M51 223L52 224L51 223M52 224L53 225L52 224M53 225L54 226L53 225M54 226L55 227L54 226M55 227L56 228L55 227M56 228L57 229L56 228M57 229L58 230L57 229M58 230L59 231L58 230M59 231L60 232L59 231M60 232L61 233L60 232M61 233L62 234L61 233M395 233L396 234L395 233M394 234L395 235L394 234M393 235L394 236L393 235M392 236L393 237L392 236M66 237L67 238L66 237M67 238L68 239L67 238M68 239L69 240L68 239M388 239L389 240L388 239M387 240L388 241L387 240M386 241L387 242L386 241M72 242L73 243L72 242M73 243L74 244L73 243M383 243L384 244L383 243M382 244L383 245L382 244M76 245L77 246L76 245M77 246L78 247L77 246M379 246L380 247L379 246M378 247L379 248L378 247M80 248L81 249L80 248M375 249L376 250L375 249M83 250L84 251L83 250M372 251L373 252L372 251M86 252L87 253L86 252M369 253L370 254L369 253M89 254L90 255L89 254M367 254L368 255L367 254M91 255L92 256L91 255M366 255L367 256L366 255M92 256L93 257L92 256M364 256L365 257L364 256M94 257L95 258L94 257M362 257L363 258L362 257M96 258L97 259L96 258M361 258L362 259L361 258M98 259L99 260L98 259M359 259L360 260L359 259M357 260L358 261L357 260M101 261L102 262L101 261M355 261L356 262L355 261M103 262L104 263L103 262M353 262L354 263L353 262M105 263L106 264L105 263M351 263L352 264L351 263M107 264L108 265L107 264M349 264L350 265L349 264M109.667 265.333L110.333 265.667L109.667 265.333M347 265L348 266L347 265M112 266L113 267L112 266M345 266L346 267L345 266M114 267L115 268L114 267M342.667 267.333L343.333 267.667L342.667 267.333M116 268L117 269L116 268M340 268L341 269L340 268M119 269L120 270L119 269M338 269L339 270L338 269M121 270L122 271L121 270M335 270L336 271L335 270M124 271L125 272L124 271M332.667 271.333L333.333 271.667L332.667 271.333M126.667 272.333L127.333 272.667L126.667 272.333M330 272L331 273L330 272M129.667 273.333L130.333 273.667L129.667 273.333M327 273L328 274L327 273M132.667 274.333L133.333 274.667L132.667 274.333M323.667 274.333L324.333 274.667L323.667 274.333M136 275L137 276L136 275M320.667 275.333L321.333 275.667L320.667 275.333M139.667 276.333L140.333 276.667L139.667 276.333M316.667 276.333L317.333 276.667L316.667 276.333M143.667 277.333L144.333 277.667L143.667 277.333M312.667 277.333L313.333 277.667L312.667 277.333M147.667 278.333L148.333 278.667L147.667 278.333M308.667 278.333L309.333 278.667L308.667 278.333M152.667 279.333L153.333 279.667L152.667 279.333M303 279L303 280L306 280L303 279M157 280L157 281L160 281L157 280M298 280L298 281L301 281L298 280M163 281L163 282L166 282L163 281M291 281L291 282L295 282L291 281M170 282L170 283L175 283L170 282M283 282L283 283L287 283L283 282M181 283L181 284L191 284L181 283M205 283L205 284L216 284L205 283M241 283L241 284L252 284L241 283M266 283L266 284L277 284L266 283z"/>
<path style="fill:#afa4a3; stroke:none;" d="M273 303L273 304L277 304L273 303M62 303C57.0772 319.654 61 342.609 61 360L62 360L62 303M98 303L97 330L98 330L98 303M126 303L127 304L126 303z"/>
<path style="fill:#fc6402; stroke:none;" d="M127 303L127 304L130 304L127 303z"/>
<path style="fill:#191919; stroke:none;" d="M126 359L126 358C116.103 353.858 107.512 346.17 106.239 334.91C104.207 316.927 122.358 300.387 140 306.051C172.044 316.339 159.398 365.71 127 358C131.459 363.103 143.193 359.127 148 356.031C159.665 348.518 164.43 332.721 158.647 320C156.54 315.363 153.067 311.421 148.961 308.443C145.606 306.01 142.043 304.612 138 303.808C103.301 296.911 91.1151 353.555 126 359z"/>
<path style="fill:#fc6402; stroke:none;" d="M136 303L136 304L139 304L136 303z"/>
<path style="fill:#afa4a3; stroke:none;" d="M139 303L140 304L139 303M158 303L158 304C167.988 304 189.995 299.935 198 306C198.668 301.945 191.791 303 189 303L158 303M211 303L211 304L236 304L211 303z"/>
<path style="fill:#191919; stroke:none;" d="M274 303C264.782 320.309 256.174 342.084 251 361C258.532 358.381 256.302 347.074 262.418 343.028C266.58 340.275 285.744 340.33 288.926 344.318C292.866 349.256 292.502 358.74 299 361C293.805 342.004 285.258 320.383 276 303L274 303z"/>
<path style="fill:#afa4a3; stroke:none;" d="M322 303L322 304L327 304L322 303M355.667 303.333L356.333 303.667L355.667 303.333M383 307L389 304L385 309L390 303L383 307z"/>
<path style="fill:#191919; stroke:none;" d="M62 304L62 360L63 360L63 332L98 332L98 360L99 360L99 304L98 304L98 331L63 331L62 304z"/>
<path style="fill:#fc6402; stroke:none;" d="M63 304L63 331L98 331L98 330L64 330L63 304M99 304L99 360L100 360L100 322L99 304M123.667 304.333L124.333 304.667L123.667 304.333M131 304L131 305L134 305L131 304M141 304L142 305L141 304z"/>
<path style="fill:#afa4a3; stroke:none;" d="M142 304L143 305L142 304z"/>
<path style="fill:#191919; stroke:none;" d="M158 304L158 306L178 306L178 360L179 360L179 306L198 306L198 304L158 304M210 304L210 346C210 349.476 208.522 357.532 211.603 359.972C215.294 362.895 225.487 361 230 361C235.518 361 241.383 361.373 245.892 357.581C254.914 349.995 251.874 333.707 241 330C248.298 323.411 250.138 309.025 238.999 304.742C231.02 301.674 218.501 304 210 304z"/>
<path style="fill:#afa4a3; stroke:none;" d="M239 304L240 305L239 304M317 304L318 305L317 304z"/>
<path style="fill:#191919; stroke:none;" d="M351 343C346.321 344.439 344.501 348.635 340.96 351.787C334.395 357.629 324.265 359.895 316 356.517C290.987 346.294 296.687 307.823 324 306.599C337.635 305.988 340.448 318.711 351 322C338.068 292.036 295.491 302.909 297.04 335C298.51 365.437 339.675 368.909 351 343z"/>
<path style="fill:#afa4a3; stroke:none;" d="M331 304L332 305L331 304z"/>
<path style="fill:#191919; stroke:none;" d="M355 304L355 361C361.091 357.051 358 339.762 358 333C366.462 341.438 380.92 359.144 393 361C385.581 351.299 371.841 338.624 361 333L389 304C377.014 307.117 366.512 322.488 358 331L358 304L355 304z"/>
<path style="fill:#afa4a3; stroke:none;" d="M120 305L121 306L120 305z"/>
<path style="fill:#fc6402; stroke:none;" d="M121 305L122 306L121 305M125 305L123 306L123 307L125 305M127.667 305.333L128.333 305.667L127.667 305.333z"/>
<path style="fill:#afa4a3; stroke:none;" d="M129 305L129 306L136 306L129 305z"/>
<path style="fill:#fc6402; stroke:none;" d="M136 305L136 306L139 306L136 305M144 305L145 306L144 305z"/>
<path style="fill:#afa4a3; stroke:none;" d="M277 305L278 306L277 305M314 305L315 306L314 305M334 305L335 306L334 305M118 306L119 307L118 306z"/>
<path style="fill:#fc6402; stroke:none;" d="M119 306L120 307L119 306z"/>
<path style="fill:#afa4a3; stroke:none;" d="M125 306L126 307L125 306z"/>
<path style="fill:#ffffff; stroke:none;" d="M126 306.529C93.5067 314.028 106.4 364.954 139 357.471C172.506 349.779 159.408 298.82 126 306.529z"/>
<path style="fill:#afa4a3; stroke:none;" d="M140 306L141 307L140 306z"/>
<path style="fill:#fc6402; stroke:none;" d="M141 306L142 307L141 306M146 306L147 307L146 306M177 306L177 360L178 360L178 324L177 306z"/>
<path style="fill:#afa4a3; stroke:none;" d="M179 306L179 360L180 360L180 324L179 306M213 306L213 307L236 307L213 306M242 306L243 307L242 306M312 306L313 307L312 306M323 306L323 307L327 307L323 306z"/>
<path style="fill:#fc6402; stroke:none;" d="M117 307L118 308L117 307M121 307L122 308L121 307z"/>
<path style="fill:#afa4a3; stroke:none;" d="M122 307L123 308L122 307z"/>
<path style="fill:#fc6402; stroke:none;" d="M143.667 307.333L144.333 307.667L143.667 307.333M147 307L148 308L147 307z"/>
<path style="fill:#afa4a3; stroke:none;" d="M148 307L149 308L148 307z"/>
<path style="fill:#ffffff; stroke:none;" d="M213 307L213 329C220.43 329 232.45 331.273 238.956 327.142C245.347 323.085 246.062 311.969 238.956 308.179C232.406 304.686 220.29 307 213 307z"/>
<path style="fill:#afa4a3; stroke:none;" d="M238 307L239 308L238 307M243 307L244 308L243 307M310 307L311 308L310 307M317 307L318 308L317 307M331 307L332 308L331 307M115 308L116 309L115 308z"/>
<path style="fill:#fc6402; stroke:none;" d="M116 308L117 309L116 308M119 308L120 309L119 308z"/>
<path style="fill:#afa4a3; stroke:none;" d="M120 308L121 309L120 308z"/>
<path style="fill:#fc6402; stroke:none;" d="M145 308L146 309L145 308M149 308L150 309L149 308z"/>
<path style="fill:#afa4a3; stroke:none;" d="M240 308L241 309L240 308M244 308L245 309L244 308M271 308L272 309L271 308M274.667 308.333L275.333 308.667L274.667 308.333M278 308L279 309L278 308M334 308L335 309L334 308M340 308L341 309L340 308M114 309L115 310L114 309z"/>
<path style="fill:#fc6402; stroke:none;" d="M118 309L119 310L118 309M147 309L148 310L147 309M150 309L151 310L150 309z"/>
<path style="fill:#afa4a3; stroke:none;" d="M241 309L242 310L241 309z"/>
<path style="fill:#ffffff; stroke:none;" d="M274 309L263 339L287 339C284.813 331.003 280.745 313.962 274 309z"/>
<path style="fill:#afa4a3; stroke:none;" d="M307 309L308 310L307 309M336 309L337 310L336 309z"/>
<path style="fill:#fc6402; stroke:none;" d="M113 310L114 311L113 310M116 310L117 311L116 310z"/>
<path style="fill:#afa4a3; stroke:none;" d="M117 310L118 311L117 310z"/>
<path style="fill:#fc6402; stroke:none;" d="M148 310L149 311L148 310M151 310L152 311L151 310z"/>
<path style="fill:#afa4a3; stroke:none;" d="M152 310L153 311L152 310M279 310L280 311L279 310M306 310L307 311L306 310M311 310L312 311L311 310M338 310L339 311L338 310z"/>
<path style="fill:#fc6402; stroke:none;" d="M112 311L113 312L112 311M115 311L116 312L115 311z"/>
<path style="fill:#afa4a3; stroke:none;" d="M149 311L150 312L149 311z"/>
<path style="fill:#fc6402; stroke:none;" d="M150 311L151 312L150 311z"/>
<path style="fill:#afa4a3; stroke:none;" d="M153 311L154 312L153 311M273 311L274 312L273 311M276 311L277 312L276 311M305 311L306 312L305 311M339 311L340 312L339 311M111 312L112 313L111 312z"/>
<path style="fill:#fc6402; stroke:none;" d="M114 312L115 313L114 312M151 312L152 313L151 312M153 312L154 313L153 312z"/>
<path style="fill:#afa4a3; stroke:none;" d="M243 312L244 313L243 312M246 312L247 313L246 312M304 312L305 313L304 312M308 312L309 313L308 312M110 313L111 314L110 313z"/>
<path style="fill:#fc6402; stroke:none;" d="M113 313L114 314L113 313M152 313L153 314L152 313M154 313L155 314L154 313z"/>
<path style="fill:#afa4a3; stroke:none;" d="M269 313L270 314L269 313M272 313L273 314L272 313M277 313L278 314L277 313M280 313L281 314L280 313M303 313L304 314L303 313M307 313L308 314L307 313z"/>
<path style="fill:#fc6402; stroke:none;" d="M110 314L111 315L110 314M112 314L113 315L112 314M155 314L156 315L155 314z"/>
<path style="fill:#afa4a3; stroke:none;" d="M302 314L303 315L302 314M306 314L307 315L306 314z"/>
<path style="fill:#fc6402; stroke:none;" d="M109 315L110 316L109 315M111 315L112 316L111 315z"/>
<path style="fill:#afa4a3; stroke:none;" d="M153 315L154 316L153 315z"/>
<path style="fill:#fc6402; stroke:none;" d="M156 315L157 316L156 315z"/>
<path style="fill:#afa4a3; stroke:none;" d="M281 315L282 316L281 315M305 315L306 316L305 315M347 315L348 316L347 315z"/>
<path style="fill:#fc6402; stroke:none;" d="M108.333 316.667L108.667 317.333L108.333 316.667z"/>
<path style="fill:#afa4a3; stroke:none;" d="M111 316L112 317L111 316z"/>
<path style="fill:#fc6402; stroke:none;" d="M154 316L155 317L154 316z"/>
<path style="fill:#afa4a3; stroke:none;" d="M157 316L158 317L157 316M244 316L244 320L245 320L244 316M271 316L272 317L271 316M278 316L279 317L278 316M344 316L345 317L344 316z"/>
<path style="fill:#fc6402; stroke:none;" d="M110 317L111 318L110 317M155 317L156 318L155 317M157 317L158 318L157 317z"/>
<path style="fill:#afa4a3; stroke:none;" d="M247.333 317.667L247.667 318.333L247.333 317.667M300 317L301 318L300 317M345 317L346 318L345 317z"/>
<path style="fill:#fc6402; stroke:none;" d="M107 318L108 319L107 318M109.333 318.667L109.667 319.333L109.333 318.667z"/>
<path style="fill:#afa4a3; stroke:none;" d="M155 318L156 319L155 318M158 318L159 319L158 318M267 318L268 319L267 318M282 318L283 319L282 318M303 318L304 319L303 318M349 318L350 319L349 318z"/>
<path style="fill:#fc6402; stroke:none;" d="M156 319L157 320L156 319M158 319L159 320L158 319z"/>
<path style="fill:#afa4a3; stroke:none;" d="M299 319L300 320L299 319z"/>
<path style="fill:#fc6402; stroke:none;" d="M106.333 320.667L106.667 321.333L106.333 320.667M108.333 320.667L108.667 321.333L108.333 320.667z"/>
<path style="fill:#afa4a3; stroke:none;" d="M156 320L157 321L156 320M159 320L160 321L159 320M283 320L284 321L283 320M350 320L351 321L350 320z"/>
<path style="fill:#fc6402; stroke:none;" d="M157 321L158 322L157 321M159 321L160 322L159 321z"/>
<path style="fill:#afa4a3; stroke:none;" d="M269 321L270 322L269 321M280 321L281 322L280 321M105 322L106 323L105 322M157 322L158 323L157 322M243 322L244 323L243 322M246 322L247 323L246 322M301 322L302 323L301 322z"/>
<path style="fill:#fc6402; stroke:none;" d="M105 323L105 326L106 326L105 323M107 323L108 324L107 323z"/>
<path style="fill:#afa4a3; stroke:none;" d="M160 323L161 324L160 323M265 323L266 324L265 323M284 323L285 324L284 323M107 324L108 325L107 324z"/>
<path style="fill:#fc6402; stroke:none;" d="M158.333 324.667L158.667 325.333L158.333 324.667M160.333 324.667L160.667 325.333L160.333 324.667z"/>
<path style="fill:#afa4a3; stroke:none;" d="M242 324L243 325L242 324M268 324L269 325L268 324M297.333 324.667L297.667 325.333L297.333 324.667M300 324L301 325L300 324M241 325L242 326L241 325M104 326L105 327L104 326z"/>
<path style="fill:#fc6402; stroke:none;" d="M106 326L106 330L107 330L106 326z"/>
<path style="fill:#afa4a3; stroke:none;" d="M158 326L159 327L158 326M240 326L241 327L240 326M244 326L245 327L244 326M264 326L265 327L264 326M267 326L268 327L267 326M282 326L283 327L282 326z"/>
<path style="fill:#fc6402; stroke:none;" d="M104 327L104 331L105 331L104 327z"/>
<path style="fill:#afa4a3; stroke:none;" d="M161.333 327.667L161.667 328.333L161.333 327.667M239 327L240 328L239 327M236 328L237 329L236 328M263 328L264 329L263 328M286 328L287 329L286 328z"/>
<path style="fill:#fc6402; stroke:none;" d="M159 329L159 335L160 335L159 329M161 329L161 335L162 335L161 329z"/>
<path style="fill:#afa4a3; stroke:none;" d="M241 329L242 330L241 329M266 329L267 330L266 329M283 329L284 330L283 329M299 329L299 336L300 336L299 329M106 330L106 334L107 334L106 330M296 330L296 335L297 335L296 330M262 331L263 332L262 331M284 331L285 332L284 331z"/>
<path style="fill:#fc6402; stroke:none;" d="M63 332L63 360L64 360L64 333L98 333L63 332z"/>
<path style="fill:#ffffff; stroke:none;" d="M213 332L213 358C221.274 358 234.496 360.502 241.957 356.543C250.176 352.182 250.176 337.818 241.957 333.457C234.496 329.498 221.274 332 213 332z"/>
<path style="fill:#afa4a3; stroke:none;" d="M240 332L241 333L240 332M361 332L362 333L361 332M97 333L97 360L98 360L97 333z"/>
<path style="fill:#fc6402; stroke:none;" d="M104 333L104 337L105 337L104 333z"/>
<path style="fill:#afa4a3; stroke:none;" d="M242 333L243 334L242 333M261 333L262 334L261 333M288 333L289 334L288 333M358 333L359 334L358 333M362 333L363 334L362 333z"/>
<path style="fill:#fc6402; stroke:none;" d="M106 334L106 337L107 337L106 334z"/>
<path style="fill:#afa4a3; stroke:none;" d="M264 334L265 335L264 334M285 334L286 335L285 334M359 334L360 335L359 334M161.333 335.667L161.667 336.333L161.333 335.667M360 335L361 336L360 335z"/>
<path style="fill:#fc6402; stroke:none;" d="M160 336L161 337L160 336z"/>
<path style="fill:#afa4a3; stroke:none;" d="M260 336L261 337L260 336M286 336L287 337L286 336M361 336L362 337L361 336M104 337L105 338L104 337M158 337L159 338L158 337M246 337L247 338L246 337M263 337L264 338L263 337z"/>
<path style="fill:#fc6402; stroke:none;" d="M106 338L107 341L108 341L106 338z"/>
<path style="fill:#afa4a3; stroke:none;" d="M107 338L108 339L107 338z"/>
<path style="fill:#fc6402; stroke:none;" d="M158.333 338.667L158.667 339.333L158.333 338.667M160.333 338.667L160.667 339.333L160.333 338.667z"/>
<path style="fill:#afa4a3; stroke:none;" d="M259 338L260 339L259 338M290 338L291 339L290 338M368 338L369 339L368 338z"/>
<path style="fill:#fc6402; stroke:none;" d="M105.333 339.667L105.667 340.333L105.333 339.667z"/>
<path style="fill:#afa4a3; stroke:none;" d="M247 339L248 340L247 339M250 339L251 340L250 339M262 339L262 340L288 340L262 339M297 339L298 340L297 339M300 339L301 340L300 339M369 339L370 340L369 339M160 340L161 341L160 340M370 340L371 341L370 340M105 341L106 342L105 341z"/>
<path style="fill:#fc6402; stroke:none;" d="M157.333 341.667L157.667 342.333L157.333 341.667M159.333 341.667L159.667 342.333L159.333 341.667z"/>
<path style="fill:#afa4a3; stroke:none;" d="M258 341L259 342L258 341M291 341L292 342L291 341M367 341L368 342L367 341M371 341L372 342L371 341z"/>
<path style="fill:#fc6402; stroke:none;" d="M106.333 342.667L106.667 343.333L106.333 342.667M108 342L109 343L108 342z"/>
<path style="fill:#afa4a3; stroke:none;" d="M248 342L248 348L249 348L248 342M298 342L299 343L298 342M301 342L302 343L301 342M348 342L348 343L351 343L348 342M368 342L369 343L368 342M156 343L157 344L156 343M251 343L251 347L252 347L251 343M257 343L258 344L257 343M292 343L293 344L292 343M347 343L348 344L347 343M369 343L370 344L369 343z"/>
<path style="fill:#fc6402; stroke:none;" d="M107.333 344.667L107.667 345.333L107.333 344.667M109 344L110 345L109 344M156 344L157 345L156 344M158 344L159 345L158 344z"/>
<path style="fill:#afa4a3; stroke:none;" d="M260 344L261 345L260 344M289 344L290 345L289 344M302 344L303 345L302 344M370 344L371 345L370 344z"/>
<path style="fill:#fc6402; stroke:none;" d="M155 345L156 346L155 345z"/>
<path style="fill:#afa4a3; stroke:none;" d="M158 345L159 346L158 345M346 345L347 346L346 345M376 345L377 346L376 345z"/>
<path style="fill:#fc6402; stroke:none;" d="M108 346L109 347L108 346M110 346L111 347L110 346M157 346L158 347L157 346z"/>
<path style="fill:#afa4a3; stroke:none;" d="M256 346L257 347L256 346M293 346L294 347L293 346M303 346L304 347L303 346M377 346L378 347L377 346M108 347L109 348L108 347z"/>
<path style="fill:#fc6402; stroke:none;" d="M111 347L112 348L111 347M154 347L155 348L154 347z"/>
<path style="fill:#afa4a3; stroke:none;" d="M378 347L379 348L378 347z"/>
<path style="fill:#fc6402; stroke:none;" d="M109 348L110 349L109 348z"/>
<path style="fill:#afa4a3; stroke:none;" d="M112 348L113 349L112 348z"/>
<path style="fill:#fc6402; stroke:none;" d="M153 348L154 349L153 348z"/>
<path style="fill:#afa4a3; stroke:none;" d="M156 348L157 349L156 348M255 348L256 349L255 348M294 348L295 349L294 348M301 348L302 349L301 348M344 348L345 349L344 348M375 348L376 349L375 348M379 348L380 349L379 348z"/>
<path style="fill:#fc6402; stroke:none;" d="M110 349L111 350L110 349M112 349L113 350L112 349z"/>
<path style="fill:#afa4a3; stroke:none;" d="M152 349L153 350L152 349z"/>
<path style="fill:#fc6402; stroke:none;" d="M155 349L156 350L155 349z"/>
<path style="fill:#afa4a3; stroke:none;" d="M258 349L259 350L258 349M291 349L292 350L291 349M343 349L344 350L343 349M347 349L348 350L347 349M376 349L377 350L376 349z"/>
<path style="fill:#fc6402; stroke:none;" d="M111 350L112 351L111 350M113 350L114 351L113 350z"/>
<path style="fill:#afa4a3; stroke:none;" d="M151 350L152 351L151 350z"/>
<path style="fill:#fc6402; stroke:none;" d="M154 350L155 351L154 350z"/>
<path style="fill:#afa4a3; stroke:none;" d="M247 350L248 351L247 350M250 350L251 351L250 350M342 350L343 351L342 350M346 350L347 351L346 350M377 350L378 351L377 350M111 351L112 352L111 351z"/>
<path style="fill:#fc6402; stroke:none;" d="M114 351L115 352L114 351z"/>
<path style="fill:#afa4a3; stroke:none;" d="M150 351L151 352L150 351z"/>
<path style="fill:#fc6402; stroke:none;" d="M153 351L154 352L153 351z"/>
<path style="fill:#afa4a3; stroke:none;" d="M254 351L255 352L254 351M292 351L293 352L292 351M295 351L296 352L295 351M303 351L304 352L303 351M341 351L342 352L341 351M378 351L379 352L378 351M112 352L113 353L112 352z"/>
<path style="fill:#fc6402; stroke:none;" d="M115 352L116 353L115 352z"/>
<path style="fill:#afa4a3; stroke:none;" d="M116 352L117 353L116 352M149 352L150 353L149 352z"/>
<path style="fill:#fc6402; stroke:none;" d="M152 352L153 353L152 352z"/>
<path style="fill:#afa4a3; stroke:none;" d="M246 352L247 353L246 352M304 352L305 353L304 352M340 352L341 353L340 352M113 353L114 354L113 353z"/>
<path style="fill:#fc6402; stroke:none;" d="M117 353L118 354L117 353M148 353L149 354L148 353M151 353L152 354L151 353z"/>
<path style="fill:#afa4a3; stroke:none;" d="M296 353L297 354L296 353M305 353L306 354L305 353M310 353L311 354L310 353M339 353L340 354L339 353M385 353L386 354L385 353z"/>
<path style="fill:#fc6402; stroke:none;" d="M115 354L116 355L115 354M118 354L119 355L118 354z"/>
<path style="fill:#afa4a3; stroke:none;" d="M146 354L147 355L146 354z"/>
<path style="fill:#fc6402; stroke:none;" d="M147 354L148 355L147 354M150 354L151 355L150 354z"/>
<path style="fill:#afa4a3; stroke:none;" d="M256 354L257 355L256 354M293 354L294 355L293 354M306 354L307 355L306 354M311 354L312 355L311 354M386 354L387 355L386 354z"/>
<path style="fill:#fc6402; stroke:none;" d="M116 355L117 356L116 355M120 355L121 356L120 355z"/>
<path style="fill:#afa4a3; stroke:none;" d="M144 355L145 356L144 355z"/>
<path style="fill:#fc6402; stroke:none;" d="M145 355L146 356L145 355M149 355L150 356L149 355z"/>
<path style="fill:#afa4a3; stroke:none;" d="M313 355L314 356L313 355M341 355L342 356L341 355M387 355L388 356L387 355M117 356L118 357L117 356z"/>
<path style="fill:#fc6402; stroke:none;" d="M118 356L119 357L118 356M122 356L123 357L122 356z"/>
<path style="fill:#afa4a3; stroke:none;" d="M142 356L143 357L142 356z"/>
<path style="fill:#fc6402; stroke:none;" d="M143 356L144 357L143 356M147 356L148 357L147 356z"/>
<path style="fill:#afa4a3; stroke:none;" d="M148 356L149 357L148 356M242 356L243 357L242 356M252 356L253 357L252 356M255 356L256 357L255 356M294 356L295 357L294 356M297 356L298 357L297 356M309 356L310 357L309 356M315 356L316 357L315 356M384 356L385 357L384 356M388 356L389 357L388 356z"/>
<path style="fill:#fc6402; stroke:none;" d="M119 357L120 358L119 357M124.667 357.333L125.333 357.667L124.667 357.333z"/>
<path style="fill:#afa4a3; stroke:none;" d="M139 357L140 358L139 357z"/>
<path style="fill:#fc6402; stroke:none;" d="M140.667 357.333L141.333 357.667L140.667 357.333M145 357L146 358L145 357z"/>
<path style="fill:#afa4a3; stroke:none;" d="M146 357L147 358L146 357M240 357L241 358L240 357M318 357L319 358L318 357M330 357L331 358L330 357M338 357L339 358L338 357M385 357L386 358L385 357z"/>
<path style="fill:#fc6402; stroke:none;" d="M121.667 358.333L122.333 358.667L121.667 358.333M126 358L124 359L124 360L126 358M128 358L128 359L131 359L128 358z"/>
<path style="fill:#afa4a3; stroke:none;" d="M131 358L131 359L135 359L131 358z"/>
<path style="fill:#fc6402; stroke:none;" d="M135 358L135 359L138 359L135 358M143 358L144 359L143 358z"/>
<path style="fill:#afa4a3; stroke:none;" d="M144 358L145 359L144 358M298 358L299 359L298 358M336 358L337 359L336 358M386 358L387 359L386 358M123 359L124 360L123 359z"/>
<path style="fill:#fc6402; stroke:none;" d="M140.667 359.333L141.333 359.667L140.667 359.333z"/>
<path style="fill:#afa4a3; stroke:none;" d="M254 359L255 360L254 359M295 359L296 360L295 359M315 359L316 360L315 359M334 359L335 360L334 359M387 359L388 360L387 359M127 360L128 361L127 360z"/>
<path style="fill:#fc6402; stroke:none;" d="M128 360L128 361L138 361L128 360z"/>
<path style="fill:#afa4a3; stroke:none;" d="M138 360L139 361L138 360M178 360L179 361L178 360M210 360L211 361L210 360M240 360L241 361L240 360M318 360L319 361L318 360M330.667 360.333L331.333 360.667L330.667 360.333M357 360L358 361L357 360M62 382L62 411L63 411L63 386L64 386L74 401L75 401L85 386L86 386L86 411L87 411L87 382L75 399L74 399L62 382M128 382L117 411L118 411L121 402L136 402L141 411L128 382M169 404C172.158 413.067 189.136 414.868 188.833 403.015C188.597 393.802 176.733 398.262 172.623 392.721C169.652 388.717 174.043 384.615 178.001 384.167C182.534 383.655 185.39 386.985 189 389C184.995 381.465 167.489 378.712 169.542 390.985C170.982 399.588 182.517 395.093 186.149 401.148C188.877 405.697 183.091 409.676 179 409.597C174.742 409.515 172.258 406.097 169 404M219 404C222.102 412.903 239.586 414.776 239.123 403.015C238.755 393.684 226.738 398.26 222.623 392.721C219.344 388.308 224.872 384.272 229 384.167C233.051 384.065 235.721 387.17 239 389C234.995 381.465 217.489 378.712 219.542 390.985C220.985 399.609 232.581 395.125 236.288 401.148C239.067 405.663 232.992 409.674 229.001 409.597C224.765 409.515 222.31 405.993 219 404M279 382L268 411L269 411C273.773 402.101 277.264 402 287 402L292 411L281 382L279 382M347 399L333 399L333 400L345 401C339.097 412.276 321.387 411.948 321.199 397C321.014 382.28 338.667 381.301 345 392C346.597 385.898 339.24 382.302 334 382.133C326.449 381.891 320.331 387.611 319.368 395C316.989 413.262 344.89 417.944 347 399M377 411L394 411L394 410L379 410L379 398L393 398L393 396L379 396L379 384L394 384C391.724 382.276 389.891 382.051 386.999 382.005C371.975 381.765 377 399.656 377 411z"/>
<path style="fill:#ffffff; stroke:none;" d="M128 385L123 400L134 400L128 385M279 385L274 400L285 400L279 385z"/>
</svg>
